# xmcd
#
# Track frame offsets:
#	150
#	10637
#	28179
#	43884
#	59985
#	75932
#	89331
#	108420
#	122288
#	144872
#	156067
#
# Disc length: 2241 seconds
#
# Revision: 2
# Processed by: cddbd v1.5.1PL0 Copyright (c) Steve Scherf et al.
# Submitted via: EasyCDDAExtractor 5.0.6
#
DISCID=8208bf0b
DTITLE=Aqueduct - I Sold Gold
DYEAR=2005
DGENRE=Indie
TTITLE0=The Suggestion Box
TTITLE1=Hardcore Days and Softcore Nights
TTITLE2=Growing Up With GNR
TTITLE3=Heart Design
TTITLE4=Five Star Day
TTITLE5=Tension
TTITLE6=The Unspeakable
TTITLE7=Frantic (Roman Polanski Version)
TTITLE8=Laundry Baskets
TTITLE9=Gameover: Thanks for Playing
TTITLE10=The Tulsa Trap
EXTD=YEAR: 2005
EXTT0=
EXTT1=
EXTT2=
EXTT3=
EXTT4=
EXTT5=
EXTT6=
EXTT7=
EXTT8=
EXTT9=
EXTT10=
PLAYORDER=
